<svg id="Ebene_1" data-name="Ebene 1" xmlns="http://www.w3.org/2000/svg" viewBox="0 0 24.5 27.98">
    <g>
        <circle cx="12.25" cy="13.84" r="6.02" fill="none" stroke="#199ddc" stroke-width="2"/>
        <path d="M2.21,14.94l-.19,0a.6.6,0,0,1-.19-.06.56.56,0,0,1-.17-.09l-.16-.12a1.05,1.05,0,0,1-.29-.71,1,1,0,0,1,.29-.71,1,1,0,0,1,.16-.12,1,1,0,0,1,.17-.1L2,13a1,1,0,0,1,.9.27,1,1,0,0,1,.29.71,1.23,1.23,0,0,1,0,.19.6.6,0,0,1-.06.19.56.56,0,0,1-.09.17,1,1,0,0,1-.12.16A1,1,0,0,1,2.21,14.94Z" transform="translate(-0.37)" fill="#199ddc"/>
        <path d="M23,14.94a1,1,0,0,1-.71-.29,1,1,0,0,1-.29-.71,1.07,1.07,0,0,1,.07-.39,1,1,0,0,1,.22-.32,1,1,0,0,1,1.41,0,.87.87,0,0,1,.22.32,1.09,1.09,0,0,1,.08.39,1,1,0,0,1-1,1Z" transform="translate(-0.37)" fill="#199ddc"/>
        <line x1="12.25" y1="3.19" x2="12.25" y2="1" fill="none" stroke="#199ddc" stroke-linecap="round" stroke-linejoin="round" stroke-width="2"/>
        <line x1="12.25" y1="26.98" x2="12.25" y2="24.79" fill="none" stroke="#199ddc" stroke-linecap="round" stroke-linejoin="round" stroke-width="2"/>
        <line x1="3.27" y1="8.74" x2="1.37" y2="7.65" fill="none" stroke="#199ddc" stroke-linecap="round" stroke-linejoin="round" stroke-width="2"/>
        <line x1="23.18" y1="20.24" x2="21.28" y2="19.15" fill="none" stroke="#199ddc" stroke-linecap="round" stroke-linejoin="round" stroke-width="2"/>
        <path d="M18,5.64a1,1,0,0,1-1-1,1,1,0,0,1,.29-.71,1,1,0,0,1,1.41,0,1,1,0,0,1,.3.71,1,1,0,0,1-.3.71A1,1,0,0,1,18,5.64Z" transform="translate(-0.37)" fill="#199ddc"/>
        <path d="M7.21,24.35a1,1,0,0,1-.7-.3,1,1,0,0,1-.3-.7,1,1,0,0,1,.3-.71,1,1,0,0,1,1.41,0,1,1,0,0,1,0,1.41.87.87,0,0,1-.32.22A1,1,0,0,1,7.21,24.35Z" transform="translate(-0.37)" fill="#199ddc"/>
        <path d="M7.46,5.94a.62.62,0,0,1-.19,0l-.19,0a1,1,0,0,1-.17-.1.61.61,0,0,1-.15-.12L6.63,5.5a1.51,1.51,0,0,1-.09-.18.64.64,0,0,1-.06-.18,1.36,1.36,0,0,1,0-.2,1,1,0,0,1,.3-.71A1,1,0,0,1,7.85,4a1,1,0,0,1,.32.21,1,1,0,0,1,.29.71.68.68,0,0,1,0,.2,1.21,1.21,0,0,1,0,.18,1.62,1.62,0,0,1-.1.18.79.79,0,0,1-.12.15A1,1,0,0,1,7.46,5.94Z" transform="translate(-0.37)" fill="#199ddc"/>
        <path d="M17.87,24a1,1,0,0,1-1-1,1,1,0,0,1,.29-.71,1,1,0,0,1,1.41,0,1,1,0,0,1,.3.71,1,1,0,0,1-.3.71A1,1,0,0,1,17.87,24Z" transform="translate(-0.37)" fill="#199ddc"/>
        <line x1="21.61" y1="8.58" x2="23.5" y2="7.48" fill="none" stroke="#199ddc" stroke-linecap="round" stroke-linejoin="round" stroke-width="2"/>
        <line x1="1" y1="20.48" x2="2.9" y2="19.38" fill="none" stroke="#199ddc" stroke-linecap="round" stroke-linejoin="round" stroke-width="2"/>
    </g>
</svg>
