<svg id="Ebene_1" data-name="Ebene 1" xmlns="http://www.w3.org/2000/svg" viewBox="0 0 22.81 23.6">
    <g>
        <circle cx="11.4" cy="11.65" r="6.02" fill="none" stroke="#199ddc" stroke-width="2"/>
        <path d="M11.41,2a1,1,0,0,1-1-1V1a1,1,0,0,1,.07-.38A.83.83,0,0,1,10.7.29,1,1,0,0,1,11.6,0a.6.6,0,0,1,.19.06A.56.56,0,0,1,12,.17a.79.79,0,0,1,.15.12,1.06,1.06,0,0,1,.22.33,1,1,0,0,1-.55,1.31,1.11,1.11,0,0,1-.37.07Z" transform="translate(0 0)" fill="#199ddc"/>
        <path d="M11.4,23.6a1,1,0,0,1-1-1h0a1,1,0,0,1,.29-.7.87.87,0,0,1,.32-.22,1,1,0,0,1,1.09.22,1,1,0,0,1,.29.7,1,1,0,0,1-1,1Z" transform="translate(0 0)" fill="#199ddc"/>
        <path d="M2.42,7.55a1,1,0,0,1-.7-.29A1,1,0,0,1,1.5,6.17a.87.87,0,0,1,.22-.32,1,1,0,0,1,1.41,0,1,1,0,0,1,.29.7,1,1,0,0,1-.07.39,1,1,0,0,1-.22.32A1,1,0,0,1,2.42,7.55Z" transform="translate(0 0)" fill="#199ddc"/>
        <path d="M20.44,18a1,1,0,0,1-1-1,1,1,0,0,1,.08-.39.87.87,0,0,1,.22-.32,1,1,0,0,1,1.41,0,1,1,0,0,1,.21.32,1,1,0,0,1,.08.39,1,1,0,0,1-.29.7.74.74,0,0,1-.33.22A1,1,0,0,1,20.44,18Z" transform="translate(0 0)" fill="#199ddc"/>
        <path d="M20.76,7.39a1,1,0,0,1-1-1A1,1,0,0,1,19.84,6a.87.87,0,0,1,.22-.32A1,1,0,0,1,21.69,6a1,1,0,0,1,.07.39,1,1,0,0,1-.29.7.87.87,0,0,1-.32.22A1,1,0,0,1,20.76,7.39Z" transform="translate(0 0)" fill="#199ddc"/>
        <path d="M2.05,18.19a1,1,0,0,1-.7-.29,1,1,0,0,1-.22-1.09.91.91,0,0,1,.22-.33,1,1,0,0,1,1.09-.22,1.21,1.21,0,0,1,.32.22,1.19,1.19,0,0,1,.22.33,1,1,0,0,1-.22,1.09A1,1,0,0,1,2.05,18.19Z" transform="translate(0 0)" fill="#199ddc"/>
        <path d="M1,12.75a1,1,0,0,1-.38-.08.91.91,0,0,1-.33-.22,1.08,1.08,0,0,1-.29-.7,1,1,0,0,1,1-1,1,1,0,0,1,.72.29,1,1,0,0,1,.29.71,1,1,0,0,1-.07.38,1,1,0,0,1-.22.32A1,1,0,0,1,1,12.75Z" transform="translate(0 0)" fill="#199ddc"/>
        <path d="M21.81,12.75a1,1,0,0,1-.71-.3,1,1,0,0,1-.21-.32.84.84,0,0,1-.08-.38A1,1,0,0,1,22.52,11a1,1,0,0,1,.29.71,1.08,1.08,0,0,1-.29.7A1,1,0,0,1,21.81,12.75Z" transform="translate(0 0)" fill="#199ddc"/>
        <path d="M16.81,3.45a1,1,0,0,1-.71-.3,1,1,0,0,1-.29-.7,1,1,0,0,1,.29-.71,1,1,0,0,1,1.41,0,1,1,0,0,1,.3.71,1,1,0,0,1-.3.7A1,1,0,0,1,16.81,3.45Z" transform="translate(0 0)" fill="#199ddc"/>
        <path d="M6,22.16a1,1,0,0,1-.39-.08.87.87,0,0,1-.32-.22,1,1,0,0,1-.3-.7,1,1,0,0,1,.3-.71,1,1,0,0,1,1.41,0,1,1,0,0,1,.29.71,1,1,0,0,1-.29.7.87.87,0,0,1-.32.22A1,1,0,0,1,6,22.16Z" transform="translate(0 0)" fill="#199ddc"/>
        <path d="M6.25,3.75a1,1,0,0,1-.7-.29,1,1,0,0,1-.22-1.09.87.87,0,0,1,.22-.32A1,1,0,0,1,7,2.07a1.21,1.21,0,0,1,.2.3,1,1,0,0,1-.93,1.38Z" transform="translate(0 0)" fill="#199ddc"/>
        <path d="M16.66,21.77a1,1,0,0,1-1-1v0a1,1,0,0,1,1-1,1,1,0,0,1,.71,1.71A.93.93,0,0,1,16.66,21.77Z" transform="translate(0 0)" fill="#199ddc"/>
    </g>
</svg>