<svg xmlns="http://www.w3.org/2000/svg" width="22.208" height="30.69" viewBox="0 0 22.208 30.69">
    <g id="Gruppe_1166" data-name="Gruppe 1166" transform="translate(-26.316 -0.694)">
        <path id="Pfad_3017" data-name="Pfad 3017" d="M45.765,18H29.074a1.743,1.743,0,0,1-1.66-2.276L31.528,2.9a1.743,1.743,0,0,1,1.66-1.21h8.465a1.746,1.746,0,0,1,1.66,1.21l4.112,12.818A1.742,1.742,0,0,1,45.765,18Z" transform="translate(0 0)" fill="none" stroke="#199ddc" stroke-linecap="round" stroke-linejoin="round" stroke-width="2"/>
        <path id="Pfad_3019" data-name="Pfad 3019" d="M0,1V6.617a2,2,0,0,0,2,2h.111a2,2,0,0,0,2-2V1" transform="translate(35.365 17.998)" fill="none" stroke="#199ddc" stroke-linecap="round" stroke-width="2"/>
        <path id="Pfad_3018" data-name="Pfad 3018" d="M33.155,13.826a4.8,4.8,0,1,0,4.579,0" transform="translate(1.975 7.565)" fill="none" stroke="#199ddc" stroke-linecap="round" stroke-linejoin="round" stroke-width="2"/>
    </g>
</svg>