<svg xmlns="http://www.w3.org/2000/svg" width="28.256" height="28.263" viewBox="0 0 28.256 28.263">
    <g id="Gruppe_1159" data-name="Gruppe 1159" transform="translate(-1.915 -1.89)">
        <path id="Pfad_2984" data-name="Pfad 2984" d="M102.979,74.572l4.195-8.389" transform="translate(-80.481 -50.908)" fill="none" stroke="#199ddc" stroke-linecap="round" stroke-linejoin="round" stroke-width="2"/>
        <path id="Pfad_2985" data-name="Pfad 2985" d="M76.008,31.557,65.174,26.009" transform="translate(-50.074 -18.595)" fill="none" stroke="#199ddc" stroke-linecap="round" stroke-linejoin="round" stroke-width="2"/>
        <path id="Pfad_2986" data-name="Pfad 2986" d="M119.581,51.316a1.712,1.712,0,1,0,1.712-1.712A1.712,1.712,0,0,0,119.581,51.316Z" transform="translate(-93.835 -37.573)" fill="none" stroke="#199ddc" stroke-linecap="round" stroke-linejoin="round" stroke-width="2"/>
        <path id="Pfad_2987" data-name="Pfad 2987" d="M13.856,15.168a1.519,1.519,0,0,0,.43-1.291l-.7-4.9L14.8,7.77A2.854,2.854,0,1,0,10.78,3.717l-.018.018-1.21,1.21-4.9-.7A1.522,1.522,0,0,0,3.364,6.828l8.343,8.34A1.522,1.522,0,0,0,13.856,15.168Z" transform="translate(0 0)" fill="none" stroke="#199ddc" stroke-linecap="round" stroke-linejoin="round" stroke-width="2"/>
        <path id="Pfad_2988" data-name="Pfad 2988" d="M71.45,113.615a1.142,1.142,0,0,0,1.086-1.494,6.765,6.765,0,0,0-6.611-4.213,6.765,6.765,0,0,0-6.611,4.213,1.141,1.141,0,0,0,1.086,1.494Z" transform="translate(-45.314 -84.462)" fill="none" stroke="#199ddc" stroke-linecap="round" stroke-linejoin="round" stroke-width="2"/>
    </g>
</svg>