<svg xmlns="http://www.w3.org/2000/svg" width="28.469" height="28.91" viewBox="0 0 28.469 28.91">
    <g id="streamline-icon-ceiling-lamp_140x140" data-name="streamline-icon-ceiling-lamp@140x140" transform="translate(-16.861 -1.917)">
        <path id="Pfad_3051" data-name="Pfad 3051" d="M42.847,36.746a1.48,1.48,0,0,0,1.469-1.665,13.339,13.339,0,0,0-7.891-10.55,1.48,1.48,0,0,1-.888-1.356V21.941a4.441,4.441,0,1,0-8.883,0v1.233a1.48,1.48,0,0,1-.888,1.356,13.334,13.334,0,0,0-7.891,10.551,1.48,1.48,0,0,0,1.47,1.664Z" transform="translate(0 -10.882)" fill="none" stroke="#199ddc" stroke-linecap="round" stroke-linejoin="round" stroke-width="2"/>
        <path id="Pfad_3052" data-name="Pfad 3052" d="M49.787,93.333a7.92,7.92,0,0,0,13.721,0H49.787Z" transform="translate(-25.553 -67.47)" fill="none" stroke="#199ddc" stroke-linecap="round" stroke-linejoin="round" stroke-width="2"/>
        <path id="Pfad_3053" data-name="Pfad 3053" d="M70,6.618v-3.7" transform="translate(-38.905)" fill="none" stroke="#199ddc" stroke-linecap="round" stroke-linejoin="round" stroke-width="2"/>
    </g>
</svg>