<svg xmlns="http://www.w3.org/2000/svg" width="26.522" height="38.739" viewBox="0 0 26.522 38.739">
    <g id="Ellipse_699" data-name="Ellipse 699" transform="translate(11 9.462)" fill="none" stroke="#199ddc" stroke-width="2">
        <ellipse cx="7.761" cy="7.761" rx="7.761" ry="7.761" stroke="none"/>
        <ellipse cx="7.761" cy="7.761" rx="6.761" ry="6.761" fill="none"/>
    </g>
    <path id="Pfad_3078" data-name="Pfad 3078" d="M43.75,11.378V2.917" transform="translate(-25.023 -1.917)" fill="none" stroke="#199ddc" stroke-linecap="round" stroke-linejoin="round" stroke-width="2"/>
    <g id="Ellipse_698" data-name="Ellipse 698" transform="translate(0 5.117)" fill="#e8eff6" stroke="#199ddc" stroke-width="2">
        <circle cx="8.5" cy="8.5" r="8.5" stroke="none"/>
        <circle cx="8.5" cy="8.5" r="7.5" fill="none"/>
    </g>
    <path id="Pfad_3077" data-name="Pfad 3077" d="M43.75,7.147V2.917" transform="translate(-35.287 -1.917)" fill="none" stroke="#199ddc" stroke-linecap="round" stroke-linejoin="round" stroke-width="2"/>
    <g id="Ellipse_700" data-name="Ellipse 700" transform="translate(6.558 25.75)" fill="none" stroke="#199ddc" stroke-width="2">
        <ellipse cx="6.494" cy="6.494" rx="6.494" ry="6.494" stroke="none"/>
        <ellipse cx="6.494" cy="6.494" rx="5.494" ry="5.494" fill="none"/>
    </g>
    <path id="Pfad_3079" data-name="Pfad 3079" d="M43.75,7.286V2.917" transform="translate(-30.698 18.464)" fill="none" stroke="#199ddc" stroke-linecap="round" stroke-linejoin="round" stroke-width="2"/>
    <path id="Pfad_3080" data-name="Pfad 3080" d="M22.313,9.57a18.939,18.939,0,0,0,5.592,2.482,23.651,23.651,0,0,0,6.385-.27" transform="matrix(0.985, -0.174, 0.174, 0.985, -20.857, 4.985)" fill="none" stroke="#199ddc" stroke-linecap="round" stroke-width="2"/>
    <path id="Pfad_3082" data-name="Pfad 3082" d="M29.024,9.57a8.13,8.13,0,0,1-3.4,2.211,10,10,0,0,1-4.089,0" transform="translate(-5.313 3.401)" fill="none" stroke="#199ddc" stroke-linecap="round" stroke-width="2"/>
    <path id="Pfad_3081" data-name="Pfad 3081" d="M22.313,9.57a22.134,22.134,0,0,0,6.4,2.914,28.094,28.094,0,0,0,7.355-.152" transform="translate(-21.873 9.699) rotate(-11)" fill="none" stroke="#199ddc" stroke-linecap="round" stroke-width="2"/>
    <path id="Pfad_3083" data-name="Pfad 3083" d="M31.953,9.57s-3.247,2.491-5.849,2.52a10.816,10.816,0,0,1-4.334-.784" transform="translate(-6.65 6.448) rotate(2)" fill="none" stroke="#199ddc" stroke-linecap="round" stroke-width="2"/>
    <path id="Pfad_3084" data-name="Pfad 3084" d="M22.313,9.57s1.411,2.311,2.843,2.963a10.658,10.658,0,0,0,4.144.408" transform="translate(-14.941 33.005) rotate(-31)" fill="none" stroke="#199ddc" stroke-linecap="round" stroke-width="2"/>
    <path id="Pfad_3085" data-name="Pfad 3085" d="M22.313,9.57s2.091,3.129,4,3.937,5.326.242,5.326.242" transform="translate(-16.402 33.525) rotate(-25)" fill="none" stroke="#199ddc" stroke-linecap="round" stroke-width="2"/>
</svg>