<svg xmlns="http://www.w3.org/2000/svg" width="22.911" height="30.167" viewBox="0 0 22.911 30.167">
    <g id="streamline-icon-table-lamp-3_140x140" data-name="streamline-icon-table-lamp-3@140x140" transform="translate(-19.47 -1.917)">
        <path id="Pfad_2989" data-name="Pfad 2989" d="M70.082,81.585v7.977" transform="translate(-39.159 -62.153)" fill="none" stroke="#199ddc" stroke-linecap="round" stroke-linejoin="round" stroke-width="2"/>
        <path id="Pfad_2990" data-name="Pfad 2990" d="M26.332,123.257c0-2.029,4.286-3.674,9.185-3.674,5.511,0,9.185,1.645,9.185,3.674Z" transform="translate(-4.594 -92.174)" fill="none" stroke="#199ddc" stroke-linecap="round" stroke-linejoin="round" stroke-width="2"/>
        <path id="Pfad_2991" data-name="Pfad 2991" d="M41.242,16.907,39.6,4.019a1.225,1.225,0,0,0-1.219-1.1H23.458a1.225,1.225,0,0,0-1.219,1.1L20.6,16.907a3.051,3.051,0,0,0,5.422,2.525,3.036,3.036,0,0,0,4.9,0,3.036,3.036,0,0,0,4.9,0,3.047,3.047,0,0,0,5.422-2.525Z" fill="none" stroke="#199ddc" stroke-linecap="round" stroke-linejoin="round" stroke-width="2"/>
        <path id="Pfad_2992" data-name="Pfad 2992" d="M93.415,81.585v3.691" transform="translate(-57.594 -62.153)" fill="none" stroke="#199ddc" stroke-linecap="round" stroke-linejoin="round" stroke-width="2"/>
    </g>
</svg>