<svg xmlns="http://www.w3.org/2000/svg" width="13.887" height="27.729" viewBox="0 0 13.887 27.729">
    <g id="Gruppe_1139" data-name="Gruppe 1139" transform="translate(-301.823 -383.165)">
        <path id="Pfad_2982" data-name="Pfad 2982" d="M11.281,22.781V11.875H9.015V22.781a3.4,3.4,0,1,0,2.265,0Z" transform="translate(298.62 377.719)" fill="#199ddc"/>
        <g id="Pfad_2983" data-name="Pfad 2983" transform="translate(299.243 380.584)" fill="none">
            <path d="M9.524,28.311a4.95,4.95,0,0,1-4.944-4.944,4.86,4.86,0,0,1,1.063-3.025q.14-.177.3-.34c.051-.054.1-.11.153-.161q.164-.157.342-.3c.041-.033.08-.071.124-.1V7.548a2.966,2.966,0,1,1,5.932,0V19.437c.043.033.082.071.125.105.117.095.233.192.341.3.054.053.1.109.154.163.1.109.2.221.294.339a4.859,4.859,0,0,1,1.064,3.026A4.95,4.95,0,0,1,9.524,28.311Z" stroke="none"/>
            <path d="M 9.524223327636719 28.31055068969727 C 12.25307369232178 28.30716133117676 14.46439361572266 26.09584045410156 14.46778297424316 23.36699104309082 C 14.46575355529785 22.26697158813477 14.09053325653076 21.20018196105957 13.40349292755127 20.34109115600586 C 13.31033325195312 20.22244071960449 13.21102333068848 20.11083030700684 13.10907363891602 20.00185012817383 C 13.05810356140137 19.94736099243164 13.00888347625732 19.89111137390137 12.95527362823486 19.83838081359863 C 12.8471736907959 19.73380088806152 12.73116302490234 19.63712120056152 12.61428356170654 19.54221153259277 C 12.571213722229 19.50793075561523 12.53254318237305 19.47014045715332 12.48948287963867 19.4367504119873 L 12.48948287963867 7.547591209411621 C 12.48948287963867 5.909440994262695 11.1614933013916 4.581450939178467 9.523343086242676 4.581450939178467 C 7.885193347930908 4.581450939178467 6.55720329284668 5.909440994262695 6.55720329284668 7.547591209411621 L 6.55720329284668 19.43851089477539 C 6.51326322555542 19.47102165222168 6.474593162536621 19.50881195068359 6.433293342590332 19.54221153259277 C 6.314933300018311 19.63667106628418 6.200863361358643 19.73637199401855 6.091413497924805 19.84102058410645 C 6.037803173065186 19.89200019836426 5.989463329315186 19.94824028015137 5.938493251800537 20.00185012817383 C 5.835043430328369 20.11077117919922 5.736513137817383 20.22425079345703 5.643203258514404 20.34197044372559 C 4.957033157348633 21.20109176635742 4.582463264465332 22.26748085021973 4.580663204193115 23.36699104309082 C 4.584053516387939 26.09584045410156 6.795373439788818 28.30716133117676 9.524223327636719 28.31055068969727 M 9.526702880859375 30.31055068969727 L 9.521743774414062 30.31055068969727 C 5.699163436889648 30.30580139160156 2.585413217544556 27.19205093383789 2.580663442611694 23.36947059631348 L 2.580663442611694 23.36372184753418 C 2.58319091796875 21.81951141357422 3.114830732345581 20.30451583862305 4.077675819396973 19.09732437133789 C 4.206910133361816 18.93442916870117 4.345069885253906 18.77535820007324 4.488333225250244 18.62452125549316 C 4.49833345413208 18.61400032043457 4.507403373718262 18.60400199890137 4.516533374786377 18.59407043457031 C 4.528491497039795 18.58106231689453 4.542088508605957 18.56627082824707 4.55720329284668 18.55005264282227 L 4.55720329284668 7.547591209411621 C 4.55720329284668 4.809250831604004 6.785003185272217 2.581450939178467 9.523343086242676 2.581450939178467 C 12.26168346405029 2.581450939178467 14.48948287963867 4.809250831604004 14.48948287963867 7.547591209411621 L 14.48948287963867 18.54855537414551 C 14.50692939758301 18.56733131408691 14.52279281616211 18.58463859558105 14.53698348999023 18.60012054443359 L 14.56967353820801 18.63560104370117 C 14.72690391540527 18.80367279052734 14.85486030578613 18.95141220092773 14.97173976898193 19.0998592376709 C 15.93367099761963 20.30640029907227 16.46492958068848 21.82011985778809 16.46778297424316 23.36330032348633 L 16.46778297424316 23.36947059631348 C 16.46303367614746 27.19205093383789 13.34928321838379 30.30580139160156 9.526702880859375 30.31055068969727 Z" stroke="none" fill="#199ddc"/>
        </g>
    </g>
</svg>