<svg height="24.046" viewBox="0 0 24.002 24.046" width="24.002" xmlns="http://www.w3.org/2000/svg"><path d="m24.112 18.5v3.319a2.212 2.212 0 0 1 -2.412 2.216 21.891 21.891 0 0 1 -9.546-3.4 21.57 21.57 0 0 1 -6.637-6.635 21.891 21.891 0 0 1 -3.4-9.591 2.212 2.212 0 0 1 2.205-2.409h3.319a2.212 2.212 0 0 1 2.212 1.9 14.2 14.2 0 0 0 .774 3.108 2.212 2.212 0 0 1 -.5 2.334l-1.4 1.4a17.7 17.7 0 0 0 6.637 6.637l1.4-1.4a2.212 2.212 0 0 1 2.334-.5 14.2 14.2 0 0 0 3.108.774 2.212 2.212 0 0 1 1.9 2.246z" fill="none" stroke="#4baeea" stroke-linecap="round" stroke-linejoin="round" stroke-width="2" transform="translate(-1.111 -1)"/></svg>