<svg xmlns="http://www.w3.org/2000/svg" width="23.5" height="25.604" viewBox="0 0 23.5 25.604">
    <g id="icon-Linzenzen" transform="translate(-8 -2.167)">
        <path id="Pfad_2896" data-name="Pfad 2896" d="M51.765,37.549A5.466,5.466,0,1,1,46.3,32.083" transform="translate(-26.549 -24.103)" fill="none" stroke="#317597" stroke-linecap="round" stroke-linejoin="round" stroke-width="1.5"/>
        <path id="Pfad_2897" data-name="Pfad 2897" d="M58.333,37,60.1,38.33a.547.547,0,0,0,.748-.088l5.134-6.16" transform="translate(-40.872 -24.005)" fill="none" stroke="#317597" stroke-linecap="round" stroke-linejoin="round" stroke-width="1.5"/>
        <path id="Pfad_2898" data-name="Pfad 2898" d="M8.75,6.348v8a12.9,12.9,0,0,0,8.61,12.014l1.174.434a3.526,3.526,0,0,0,2.431,0l1.174-.434a12.9,12.9,0,0,0,8.61-12.014v-8a1.606,1.606,0,0,0-.978-1.473,46.679,46.679,0,0,1-5.415-.625c-1.532-.38-4.607-1.333-4.607-1.333A27,27,0,0,1,15.091,4.25c-1.581.168-5.363.625-5.363.625A1.606,1.606,0,0,0,8.75,6.348Z" fill="none" stroke="#317597" stroke-linecap="round" stroke-linejoin="round" stroke-width="1.5"/>
    </g>
</svg>