<svg xmlns="http://www.w3.org/2000/svg" width="63.104" height="60.008" viewBox="0 0 63.104 60.008">
    <g id="thumb-up" transform="translate(-0.5 -0.498)">
        <path id="Pfad_632" data-name="Pfad 632" d="M13,33,24,2s7-.182,7,8V25H55a5.618,5.618,0,0,1,5.727,5.364,5.4,5.4,0,0,1-1.312,3.511,5.418,5.418,0,0,1-.986,9.8,5.432,5.432,0,0,1-3.06,8.285A4.084,4.084,0,0,1,52.545,59H31a39.551,39.551,0,0,1-18-4" fill="#fff" stroke="#437a41" stroke-linecap="round" stroke-linejoin="round" stroke-miterlimit="10" stroke-width="3"/>
        <rect id="Rechteck_1948" data-name="Rechteck 1948" width="11" height="30" rx="3" transform="translate(2 28)" fill="#fff" stroke="#437a41" stroke-linecap="round" stroke-linejoin="round" stroke-miterlimit="10" stroke-width="3"/>
    </g>
</svg>