<svg xmlns="http://www.w3.org/2000/svg" width="63.104" height="60.008" viewBox="0 0 63.104 60.008">
    <g id="thumb-down" transform="translate(-0.5 -3.494)">
        <path id="Pfad_631" data-name="Pfad 631" d="M13,31,24,62s7,.182,7-8V39H55a5.618,5.618,0,0,0,5.727-5.364,5.4,5.4,0,0,0-1.312-3.511,5.418,5.418,0,0,0-.986-9.8,5.432,5.432,0,0,0-3.06-8.285A4.084,4.084,0,0,0,52.545,5H31A39.551,39.551,0,0,0,13,9" fill="#fff" stroke="#c1282a" stroke-linecap="round" stroke-linejoin="round" stroke-miterlimit="10" stroke-width="3"/>
        <rect id="Rechteck_1947" data-name="Rechteck 1947" width="11" height="30" rx="3" transform="translate(2 6)" fill="#fff" stroke="#c1282a" stroke-linecap="round" stroke-linejoin="round" stroke-miterlimit="10" stroke-width="3"/>
    </g>
</svg>