<svg height="235.199" viewBox="0 0 217.966 235.199" width="217.966" xmlns="http://www.w3.org/2000/svg"><path d="m966.858 733.409a7.173 7.173 0 0 1 12.332 0l26.679 44.9a7.169 7.169 0 0 0 4.7 3.357l51.774 10.786a7.173 7.173 0 0 1 3.812 11.882l-35.177 38.152a7.174 7.174 0 0 0 -1.86 5.622c.976 9.133 3.783 35.476 5.46 51.189a7.172 7.172 0 0 1 -9.978 7.342c-14.908-6.443-40.268-17.409-48.734-21.07a7.172 7.172 0 0 0 -5.692 0c-8.466 3.661-33.826 14.626-48.732 21.07a7.171 7.171 0 0 1 -9.978-7.342c1.675-15.714 4.485-42.057 5.46-51.189a7.18 7.18 0 0 0 -1.86-5.622l-35.176-38.152a7.17 7.17 0 0 1 3.811-11.882l51.774-10.786a7.169 7.169 0 0 0 4.7-3.357z" fill="#0089bb" fill-rule="evenodd" transform="matrix(.985 -.174 .174 .985 -991.724168 -533.157622)"/><g stroke="#325463" stroke-linejoin="round"><path d="m1003.15 970.171-74.858-12.628 9.686-21.886 63.2 10.661z" fill="#ccd8df" fill-rule="evenodd" stroke-linecap="round" stroke-width=".97" transform="matrix(.985 -.174 .174 .985 -1005.093003 -563.533226)"/><path d="m1012.465 886.766-67.619-11.406c-5.054 22.762-8.717 47.2-12.369 73.332l67.623 11.408c4.957-24.15 9.3-48.466 12.365-73.334z" fill="#ccd8df" fill-rule="evenodd" stroke-linecap="round" stroke-width=".982" transform="matrix(.985 -.174 .174 .985 -1004.095733 -554.115757)"/><path d="m1014.762 884.859-67.619-11.407 7.454-10.268 56.492 9.528z" fill="#e6ebee" fill-rule="evenodd" stroke-linecap="round" stroke-width=".982" transform="matrix(.985 -.174 .174 .985 -1006.02646 -551.837684)"/><path d="m1004.627 896.115-51.407-8.671-9.42 55.865 51.4 8.671z" fill="#e6ebee" fill-rule="evenodd" stroke-linecap="round" stroke-width=".97" transform="matrix(.985 -.174 .174 .985 -1006.17152 -555.67186)"/><path d="m1003.046 974.239-74.729-12.607-.69 4.085 74.73 12.607z" fill="#e6ebee" fill-rule="evenodd" stroke-linecap="round" stroke-width=".97" transform="matrix(.985 -.174 .174 .985 -1005.698569 -567.559287)"/><path d="m979.033 904.679-8.5 15.605 9.15 2.493-9.133 19.448 21.041-23.881-9.612-1.923 7.2-9.781z" fill="none" stroke-linecap="round" stroke-width=".97" transform="matrix(.985 -.174 .174 .985 -1010.7665 -557.602648)"/><path d="m1003.463 862.469-31.481-5.4c-4.595 3.53-8.38 7.038-9.009 11.473 4.427 3.864 14.564 6.9 21.912 8.038a79.313 79.313 0 0 0 23.474-.126c1.2-4.798-1.801-9.578-4.896-13.985z" fill="#fab70d" fill-rule="evenodd" stroke-linecap="round" stroke-width=".982" transform="matrix(.985 -.174 .174 .985 -1008.302568 -550.462534)"/><path d="m1007.508 845.751-31.5-5.313c1.565 6.057.876 10.887-2.412 14.308 9.713 5.058 20.3 6.456 31.494 5.313-3.466-4.767-2.172-9.537 2.418-14.308z" fill="#e29718" fill-rule="evenodd" stroke-linecap="round" stroke-width=".982" transform="matrix(.985 -.174 .174 .985 -1009.488338 -547.607073)"/><path d="m960.3 779.4c-.021-.054-.044-.108-.067-.159 0 0-2.812-6.1-6.571-9.831a10.4 10.4 0 0 0 -6.646-3.4c-6.608-.228-10.49 3.806-12.345 9.69-2.358 7.482-1.151 18.18.963 24.258 5.979 17.186 14.531 19.231 20.7 15.6 2.586-1.52 4.507-4.5 5.719-8.027a42.227 42.227 0 0 0 1.963-13.309c-.116-5.296-3.716-14.822-3.716-14.822zm-5.145 2.079a36.4 36.4 0 0 0 -4.185-6.773 13.2 13.2 0 0 0 -2.412-2.389 3.3 3.3 0 0 0 -1.733-.758c-3.785-.131-5.8 2.442-6.862 5.814-2.019 6.4-.9 15.56.912 20.765 1.843 5.3 3.839 8.906 5.937 11.109 2.294 2.408 4.632 2.758 6.713 1.534 1.577-.928 2.542-2.89 3.281-5.046a36.062 36.062 0 0 0 1.662-11.39c-.094-4.359-2.968-11.963-3.317-12.867z" fill="#fab70d" fill-rule="evenodd" stroke-width=".97" transform="matrix(.985 -.174 .174 .985 -1001.253013 -537.218347)"/><path d="m1042.544 793.66c.035-.043.074-.087.114-.128 0 0 4.657-4.835 9.434-7.131a10.392 10.392 0 0 1 7.394-1.029c6.313 1.955 8.659 7.036 8.481 13.206-.226 7.839-4.876 17.549-8.866 22.6-11.287 14.274-20.037 13.4-24.677 7.949-1.942-2.284-2.781-5.727-2.768-9.46a42.265 42.265 0 0 1 2.512-13.216c1.843-4.975 8.376-12.791 8.376-12.791zm4.178 3.653a36.419 36.419 0 0 1 6.175-5.027 13.275 13.275 0 0 1 3.062-1.464 3.3 3.3 0 0 1 1.886-.147c3.62 1.118 4.676 4.208 4.574 7.741-.193 6.713-4.256 14.995-7.674 19.319-3.481 4.4-6.547 7.153-9.251 8.545-2.959 1.524-5.28 1.087-6.846-.751-1.187-1.4-1.453-3.566-1.445-5.844a36.046 36.046 0 0 1 2.166-11.305c1.516-4.089 6.731-10.329 7.353-11.067z" fill="#fab70d" fill-rule="evenodd" stroke-width=".97" transform="matrix(.985 -.174 .174 .985 -1016.936652 -537.480827)"/><path d="m1043.854 774.718-84.534-14.26c-3.828 25.661-4.256 61.268 15.778 70.473 11.533 5.3 16.8 6.444 29.609 3.711 13.841-2.953 33.505-27.661 39.147-59.924z" fill="#fab70d" fill-rule="evenodd" stroke-linecap="round" stroke-width=".982" transform="matrix(.985 -.174 .174 .985 -1004.785881 -535.712607)"/></g><path d="m1033.484 790.6a90.255 90.255 0 0 1 -6.193 21.124c-2.944 6.46-13.581 17.639-13.027 18.944s13.972-5.272 19.2-15.96c7.222-14.769 7.211-20.569 7.137-22.649s-.694-3.879-2.715-3.982a4.2 4.2 0 0 0 -4.402 2.523z" fill="#fff" fill-rule="evenodd" transform="matrix(.985 -.174 .174 .985 -1014.331352 -538.418449)"/><path d="m1004.836 865.932c-2.4-.019-3.5 2.317-3.3 4.164s2.414 6.114 6.22 5.753 3.513-4.24 2.826-5.591-3.342-4.307-5.746-4.326z" fill="#fff" fill-rule="evenodd" transform="matrix(.985 -.174 .174 .985 -1014.48954 -550.77945)"/><path d="m1002.965 761.29c23.329 3.936 41.821 9.775 41.272 13.034s-19.935 2.708-43.264-1.226-41.819-9.775-41.271-13.034 19.936-2.709 43.263 1.226z" style="fill-rule:evenodd;stroke:#325463;stroke-linejoin:round;stroke-linecap:round;stroke-width:.982;fill:#cc7a17" transform="matrix(.985 -.174 .174 .985 -1005.093421 -535.257064)"/></svg>