<svg height="191.862" viewBox="0 0 180.163 191.862" width="180.163" xmlns="http://www.w3.org/2000/svg"><g transform="translate(-1151.265 -733.47)"><path d="m1151.354 855.9a.4.4 0 0 0 .058.565l61.817 50.305a.4.4 0 0 0 .295.086.4.4 0 0 0 .27-.147c5.854-7.313 111.427-139.229 117.547-146.873a.4.4 0 0 0 .083-.315.407.407 0 0 0 -.176-.273c-3.831-2.489-36.053-23.438-39.56-25.716a.4.4 0 0 0 -.536.091c-4.677 6.017-80.321 103.357-85.255 109.709a.4.4 0 0 1 -.571.065c-2.8-2.288-23.108-18.917-25.869-21.176a.4.4 0 0 0 -.565.055z" fill="#0089bb" fill-rule="evenodd"/><g stroke="#325463" stroke-linecap="round" stroke-linejoin="round"><path d="m1237.378 937.2 65.362.123-5.057-16.944-55.184-.1z" fill="#325463" fill-rule="evenodd" stroke-width=".97" transform="translate(-7.812 -16.948)"/><path d="m1242.079 874.591 55.8.105c.94 18.366.536 37.852-.109 58.651l-55.8-.105c-.677-19.43-.833-38.912.109-58.651z" fill="#6c7f89" fill-rule="evenodd" stroke-width=".982" transform="translate(-8.178 -12.803)"/><path d="m1242.077 873.369 55.858.105-4.572-12.263-46.668-.087z" fill="#6c7f89" fill-rule="evenodd" stroke-width=".982" transform="translate(-8.238 -11.581)"/><path d="m1250.119 885.222 40.631.075-.075 40.683-40.632-.075z" fill="#b1bfc6" fill-rule="evenodd" stroke-width=".97" transform="translate(-8.961 -13.767)"/><path d="m1237.377 938.893 65.362.123-.007 4.467-65.364-.123z" fill="#6c7f89" fill-rule="evenodd" stroke-width=".97" transform="translate(-7.811 -18.636)"/><path d="m1267.739 890.576-4.439 13.614 7.724.654-4.369 16.754 13.252-22-8.008-.134 4.286-8.8z" fill="none" stroke-width=".97" transform="translate(-10.163 -14.253)"/><path d="m1240.618 805.131c-6.255 2.726-8.579 11.26-5.186 19.049s11.229 11.9 17.484 9.173 8.579-11.26 5.186-19.049-11.229-11.904-17.484-9.173zm1.536 3.527c-4.69 2.045-6.433 8.445-3.889 14.288s8.423 8.925 13.114 6.88 6.433-8.447 3.888-14.287-8.421-8.926-13.113-6.881z" fill="#ccd8df" fill-rule="evenodd" stroke-width=".97" transform="translate(-7.493 -6.425)"/><path d="m1258.451 860.283 23.2-.02c2.857 3.088 5.138 6.063 5.049 9.316-3.643 2.226-11.273 3.162-16.673 3.079a57.632 57.632 0 0 1 -16.794-2.958c-.272-3.583 2.467-6.639 5.218-9.417z" fill="#e6ebee" fill-rule="evenodd" stroke-width=".982" transform="translate(-9.248 -11.503)"/><path d="m1258.99 848.852 23.2.043c-1.859 4.145-1.955 7.69-.02 10.541-7.573 2.433-15.323 2.143-23.2-.045 3.07-2.991 2.73-6.561.02-10.539z" fill="#ccd8df" fill-rule="evenodd" stroke-width=".982" transform="translate(-9.77 -10.467)"/><path d="m1236.214 797.553 62.272.115c-.225 17.083-9.3 20.15-12.6 29.64-3.022 8.693-.7 15.535-7.717 18.589-5.108 2.224-12.172 2.474-20.513-.663-4.981-1.873-2.9-11.108-6.925-20.06-3.75-8.342-14.471-16.147-14.517-27.621z" fill="#e6ebee" fill-rule="evenodd" stroke-width=".982" transform="translate(-7.706 -5.814)"/></g><path d="m1261.841 862.544a2.571 2.571 0 0 1 1.858 3.383c-.368 1.3-2.476 4.084-5.157 3.36s-2-3.466-1.342-4.348 2.92-2.677 4.641-2.395z" fill="#fff" fill-rule="evenodd" transform="translate(-9.556 -11.707)"/><path d="m1267.358 792.834c-17.183-.034-31.139 1.89-31.144 4.291s13.943 4.373 31.128 4.406 31.139-1.89 31.144-4.291-13.944-4.375-31.128-4.406z" style="fill-rule:evenodd;stroke:#325463;stroke-linecap:round;stroke-linejoin:round;stroke-width:.982;fill:#b1bfc6" transform="translate(-7.706 -5.385)"/><path d="m1298.178 807.412c4.357-1.186 8.78-.554 12.052 2.145 6.061 5 5.9 15.214-.35 22.8s-16.252 9.679-22.313 4.679c-.273-.226-.534-.463-.781-.708.678-1.513 1.337-3.052 1.94-4.572a8.688 8.688 0 0 0 1.674 1.844c4.546 3.751 12.044 2.179 16.734-3.509s4.808-13.347.263-17.1c-3.234-2.671-7.964-2.643-12.114-.355.929-1.882 1.923-3.648 2.895-5.224z" style="fill-rule:evenodd;stroke:#325463;stroke-linecap:round;stroke-linejoin:round;stroke-width:.97;fill:#ccd8df" transform="translate(-12.294 -6.656)"/><path d="m1289.107 826.361c-11.315 2.469-21.517 3.2-34.318.591" fill="none" stroke="#325463" stroke-linecap="round" stroke-linejoin="round" stroke-width=".97" transform="translate(-9.391 -8.427)"/><path d="m1242.1 803.433c.032-.221 4.731.018 4.952.02.438.007.873.023 1.309.058a23.838 23.838 0 0 1 6.407 1.261 7.662 7.662 0 0 1 1.453.706c3.222 2.065-.686 5.121-1.487 7.606-.326 1.007-.228 4.049-1.183 4.647-1.2.755-3.233-1.278-4-1.971a36.616 36.616 0 0 1 -6.965-8.474c-.627-1.069-1.547-2.775-.486-3.853z" fill="#fff" fill-rule="evenodd" transform="translate(-8.196 -6.339)"/></g></svg>