<svg xmlns="http://www.w3.org/2000/svg" width="21.5" height="23.5" viewBox="0 0 21.5 23.5">
    <g id="steps" transform="translate(-1.25 -0.25)">
        <path id="Pfad_626" data-name="Pfad 626" d="M21,13H15c0-3.8-1-4.6-1-7,0-3,1.8-5,4-5h0c2.2,0,4,2,4,5A35.483,35.483,0,0,1,21,13Z" fill="none" stroke="#317597" stroke-linecap="round" stroke-linejoin="round" stroke-miterlimit="10" stroke-width="1.5"/>
        <path id="Pfad_627" data-name="Pfad 627" d="M18,21h0a3.25,3.25,0,0,1-3.2-3.9L15,16h6l.2,1.1A3.25,3.25,0,0,1,18,21Z" fill="none" stroke="#317597" stroke-linecap="round" stroke-linejoin="round" stroke-miterlimit="10" stroke-width="1.5"/>
        <path id="Pfad_628" data-name="Pfad 628" d="M3,15H9c0-3.8,1-4.6,1-7,0-3-1.8-5-4-5H6C3.8,3,2,5,2,8A35.483,35.483,0,0,0,3,15Z" fill="none" stroke="#317597" stroke-linecap="round" stroke-linejoin="round" stroke-miterlimit="10" stroke-width="1.5"/>
        <path id="Pfad_629" data-name="Pfad 629" d="M6,23H6a3.25,3.25,0,0,0,3.2-3.9L9,18H3l-.2,1.1A3.25,3.25,0,0,0,6,23Z" fill="none" stroke="#317597" stroke-linecap="round" stroke-linejoin="round" stroke-miterlimit="10" stroke-width="1.5"/>
    </g>
</svg>