<svg xmlns="http://www.w3.org/2000/svg" width="17.125" height="17.124" viewBox="0 0 17.125 17.124">
    <g id="Icon-QR-Scan" transform="translate(-803.866 -545.791)">
        <rect id="Rechteck_2270" data-name="Rechteck 2270" width="1.102" height="1.102"
              transform="translate(811.878 545.792)" fill="#6c7f89"/>
        <path id="Pfad_2971" data-name="Pfad 2971"
              d="M820.987,545.791h-5.909V551.7h5.909Zm-4.808,4.813v-3.7h3.7l.012,3.7Z" fill="#6c7f89"/>
        <rect id="Rechteck_2271" data-name="Rechteck 2271" width="1.102" height="1.102"
              transform="translate(803.866 553.803)" fill="#6c7f89"/>
        <path id="Pfad_2972" data-name="Pfad 2972"
              d="M803.866,551.7h5.912v-5.912h-5.912Zm4.812-4.809v3.71h-3.7l-.012-3.71Z" fill="#6c7f89"/>
        <rect id="Rechteck_2272" data-name="Rechteck 2272" width="1.102" height="1.102"
              transform="translate(807.071 553.803)" fill="#6c7f89"/>
        <path id="Pfad_2973" data-name="Pfad 2973" d="M803.866,562.912h5.912V557h-5.912Zm1.112-4.8h3.7v3.7h-3.7Z"
              fill="#6c7f89"/>
        <rect id="Rechteck_2273" data-name="Rechteck 2273" width="1.102" height="1.102"
              transform="translate(810.276 553.803)" fill="#6c7f89"/>
        <rect id="Rechteck_2274" data-name="Rechteck 2274" width="1.102" height="4.306"
              transform="translate(811.878 548.996)" fill="#6c7f89"/>
        <path id="Pfad_2974" data-name="Pfad 2974"
              d="M816.179,555.4h-1.6v-1.6h-1.1v1.6h-1.6v1.1h1.6v2.1h-1.6v4.307h1.1v-3.2h1.6V556.5h1.6Z" fill="#6c7f89"/>
        <path id="Pfad_2975" data-name="Pfad 2975" d="M816.179,560.216h-1.1v2.7h2.7v-1.1h-1.6Z" fill="#6c7f89"/>
        <rect id="Rechteck_2275" data-name="Rechteck 2275" width="1.102" height="1.102"
              transform="translate(816.685 553.803)" fill="#6c7f89"/>
        <path id="Pfad_2976" data-name="Pfad 2976" d="M820.979,557h-1.6v-1.6h-1.1l.007,3.2h-1.607v1.1h2.7v-1.6h1.6Z"
              fill="#6c7f89"/>
        <rect id="Rechteck_2276" data-name="Rechteck 2276" width="1.102" height="1.102"
              transform="translate(819.89 553.803)" fill="#6c7f89"/>
        <rect id="Rechteck_2277" data-name="Rechteck 2277" width="1.102" height="1.102"
              transform="translate(819.89 561.813)" fill="#6c7f89"/>
    </g>
</svg>