<svg xmlns="http://www.w3.org/2000/svg" width="19.004" height="24.516"><path d="M.75 15.164h15.809M3.075 12.607V8.422m13.484-4.54v-1.6A1.529 1.529 0 0015.03.75H2.279A1.529 1.529 0 00.75 2.279v19.26a1.529 1.529 0 001.529 1.529H15.03a1.529 1.529 0 001.529-1.529V11.375M4.935 23.404v-.1h-.93v.1a.361.361 0 00.361.361h.207a.361.361 0 00.362-.361zm8.369 0v-.1h-.93v.1a.361.361 0 00.361.361h.207a.361.361 0 00.362-.361zM17.95 5.742l-4.45 5.89c-.307.307-.609.372-.906.074l-2.036-2.239" fill="none" stroke="#317597" stroke-linecap="round" stroke-miterlimit="10" stroke-width="1.5"/></svg>